<?xml version="1.0" encoding="UTF-8"?>
<svg width="41px" height="43px" viewBox="0 0 41 43" version="1.1" xmlns="http://www.w3.org/2000/svg" xmlns:xlink="http://www.w3.org/1999/xlink">
    <!-- Generator: Sketch 51.2 (57519) - http://www.bohemiancoding.com/sketch -->
    <title>Icon</title>
    <desc>Created with Sketch.</desc>
    <defs></defs>
    <g id="Desktop" stroke="none" stroke-width="1" fill="none" fill-rule="evenodd">
        <g id="Desktop-results-short-44" transform="translate(-250.000000, -415.000000)" fill-rule="nonzero">
            <g id="Group-7" transform="translate(240.000000, 360.000000)">
                <g id="Result-1">
                    <g id="Group-4">
                        <g id="Icon" transform="translate(10.000000, 55.000000)">
                            <path d="M22.0483254,9.5556391 C21.9942859,8.55547556 20.9625415,8.7256297 19.955855,8.7256297 C20.6994779,8.92184586 21.4029724,9.19483459 22.0483254,9.5556391 Z" id="Shape" fill="#004F5E"></path>
                            <path d="M11.2867942,7.04909023 C7.37873895,7.04909023 5.57991886,11.9497237 8.70404453,14.414485 C9.76905089,11.5971353 11.8891653,9.57419173 14.6685439,8.7757218 C13.9082454,7.7343891 12.6798721,7.04909023 11.2867942,7.04909023 Z" id="Shape" fill="#131414"></path>
                            <path d="M3.21323806,13.6475545 C3.37250301,14.1538647 3.5788519,14.6395902 3.82399152,15.0997838 L2.54024107,16.3723177 C2.19549397,16.7138628 2.19549397,17.2682331 2.54024107,17.610485 L4.80303404,19.852968 C4.96782779,20.0162312 5.19361663,20.1081109 5.4289471,20.1081109 C5.66169152,20.1081109 5.8859644,20.0162312 6.05361172,19.852968 L7.33593538,18.5804342 C7.5283731,18.6813252 7.74167757,18.7431673 7.9409817,18.830188 C7.9409817,18.8156992 7.93955491,18.8006805 7.93955491,18.7861917 C7.93955491,17.7462726 8.0601183,16.7652801 8.27476038,15.8440977 C6.72651953,14.8569211 5.6934375,13.1433647 5.6934375,11.1869455 C5.6934375,8.13088534 8.2027077,5.64421429 11.286705,5.64421429 C13.3749843,5.64421429 15.1779955,6.79597932 16.1404517,8.47870301 C17.1680049,8.35245677 18.1332254,8.35245677 19.2950749,8.56996429 C19.1456191,8.12205075 18.9697677,7.68367857 18.7495077,7.27278195 L20.0332581,5.9996297 C20.2007271,5.83565977 20.2934682,5.61267481 20.2934682,5.38085526 C20.2934682,5.14894737 20.2007271,4.92605075 20.0332581,4.76208083 L17.7717136,2.52101128 C17.5987158,2.34953195 17.372927,2.26445489 17.1472273,2.26445489 C16.9214385,2.26445489 16.6957388,2.34953195 16.5239895,2.52101128 L15.2361371,3.79416353 C14.7709157,3.54997556 14.2820633,3.34554323 13.769758,3.19120301 L13.769758,1.3924812 C13.769758,0.909582707 13.376411,0.517857143 12.8875586,0.517857143 L9.68727824,0.517857143 C9.20119018,0.517857143 8.80365201,0.909582707 8.80365201,1.3924812 L8.80365201,3.19111466 C8.29268437,3.34545489 7.80374275,3.54988722 7.33709464,3.79407519 L6.05361172,2.52233647 C5.8804356,2.35085714 5.65473594,2.26578008 5.4289471,2.26578008 C5.20324743,2.26578008 4.97621016,2.35085714 4.80446083,2.5216297 L2.54024107,4.76269925 C2.37544732,4.92737594 2.28270625,5.14956579 2.28270625,5.38218045 C2.28270625,5.61470677 2.37544732,5.83698496 2.54024107,6.00095489 L3.82399152,7.27340038 C3.57876272,7.7343891 3.37250301,8.21940789 3.21609163,8.7256297 L1.40193359,8.7256297 C0.913081138,8.7256297 0.518307366,9.11797368 0.518307366,9.60157895 L0.518307366,12.7722237 C0.518307366,13.2544154 0.913081138,13.6475545 1.40193359,13.6475545 L3.21323806,13.6475545 Z" id="Shape" fill="#131414"></path>
                            <path d="M30.9360412,30.6132293 C32.3514126,29.8441786 33.3234996,28.3721598 33.3234996,26.6639041 C33.3234996,24.1710489 31.2754378,22.1434229 28.7592121,22.1434229 C27.8743374,22.1434229 27.0543815,22.4054568 26.3537405,22.8389699 C25.9341763,24.4935113 25.2735746,26.0761391 24.4094775,27.4508008 C26.8590902,27.9070188 29.1067235,29.0121372 30.9360412,30.6132293 Z" id="Shape" fill="#131414"></path>
                            <path d="M40.38056,24.9532632 C40.38056,24.4312274 39.9526135,24.0085808 39.4277347,24.0085808 L37.4697388,24.0085808 C37.3006647,23.4618083 37.0763919,22.9377406 36.8104747,22.4404417 L38.196597,21.0671936 C38.3767287,20.8901485 38.4763362,20.6501128 38.4763362,20.3997406 C38.4763362,20.1492801 38.3766395,19.909156 38.196597,19.7315808 L35.7565259,17.3134662 C35.5710437,17.1288233 35.3259041,17.0362368 35.0822805,17.0362368 C34.8384785,17.0362368 34.5947656,17.1288233 34.4092835,17.3134662 L33.0203076,18.6874211 C32.5188816,18.4239737 31.9913276,18.2031974 31.437378,18.0364004 L31.437378,16.0965019 C31.437378,15.5751729 31.0121959,15.1525263 30.4859795,15.1525263 L27.0336931,15.1525263 C26.8023754,15.1525263 26.598791,15.244406 26.4327488,15.380282 C26.7234564,16.431156 26.8827213,17.570641 26.8827213,18.7861917 C26.8827213,19.5578929 26.8219046,20.3414323 26.7082968,21.1205545 C27.3507962,20.8859079 28.0348508,20.738547 28.7592121,20.738547 C32.0577623,20.738547 34.7415462,23.3967857 34.7415462,26.6639041 C34.7415462,28.7521353 33.6406919,30.5823083 31.9885632,31.6380414 C33.1906301,32.9441466 34.1461307,34.4937331 34.7679417,36.229906 C34.8703136,36.264891 34.9769658,36.2903346 35.0836181,36.2903346 C35.3273309,36.2903346 35.5711329,36.1984549 35.7580419,36.013812 L38.1995397,33.5956974 C38.3782446,33.4186523 38.4765145,33.1786165 38.4765145,32.9282444 C38.4765145,32.6778722 38.3782446,32.4378365 38.1995397,32.2600846 L36.8105638,30.8861297 C37.076481,30.3895376 37.3007539,29.8652932 37.469828,29.3179906 L39.4278239,29.3179906 C39.6798299,29.3179906 39.9249695,29.2192199 40.1022477,29.0407613 C40.2809526,28.8644229 40.382076,28.6237688 40.382076,28.3733083 L40.38056,24.9532632 Z" id="Shape" fill="#131414"></path>
                            <path d="M32.8235895,37.0847406 C31.343121,32.7692218 27.4311421,29.8010658 22.9151869,29.3970602 C21.4029724,30.9835752 19.5306729,31.9900996 17.4103801,31.9900996 C15.2916925,31.9900996 13.4179662,30.9836635 11.9071785,29.3970602 C7.3885481,29.8010658 3.47639085,32.7692218 1.99592232,37.0854474 L1.17757154,39.4719342 C0.943489509,40.1586466 1.05558136,40.9153289 1.48219029,41.5045075 C1.90871004,42.0938628 2.59561819,42.4437124 3.3267567,42.4437124 L31.492666,42.4437124 C32.2252312,42.4437124 32.9121394,42.0938628 33.3387483,41.5045075 C33.7638413,40.9153289 33.8774491,40.1586466 33.6419403,39.4719342 L32.8235895,37.0847406 Z" id="Shape" fill="#131414"></path>
                            <path d="M10.0667141,18.7861917 C10.0667141,24.1389793 13.3557227,29.8826974 17.4103801,29.8826974 C21.4666427,29.8826974 24.755473,24.1389793 24.755473,18.7861917 C24.7555622,7.6904812 10.0667141,7.66848308 10.0667141,18.7861917 Z" id="Shape" fill="#131414"></path>
                        </g>
                    </g>
                </g>
            </g>
        </g>
    </g>
</svg>