<?xml version="1.0" encoding="UTF-8"?>
<svg width="47px" height="46px" viewBox="0 0 47 46" version="1.1" xmlns="http://www.w3.org/2000/svg" xmlns:xlink="http://www.w3.org/1999/xlink">
    <!-- Generator: Sketch 51.2 (57519) - http://www.bohemiancoding.com/sketch -->
    <title>Group 22</title>
    <desc>Created with Sketch.</desc>
    <defs></defs>
    <g id="Desktop" stroke="none" stroke-width="1" fill="none" fill-rule="evenodd">
        <g id="Desktop-results-short-44" transform="translate(-247.000000, -1049.000000)" fill="#231F20">
            <g id="Group-8" transform="translate(240.000000, 990.000000)">
                <g id="Group-22" transform="translate(7.000000, 59.000000)">
                    <path d="M4.73896502,25.1261063 L8.13146595,25.1261063 C9.45237477,25.1261063 10.5231829,26.1969145 10.5231829,27.5178233 L10.5231829,43.4676604 C10.5231829,44.7885692 9.45237477,45.8593774 8.13146595,45.8593774 L4.73896502,45.8593774 L4.73896502,25.1261063 Z" id="Rectangle-15" transform="translate(7.631074, 35.492742) rotate(-27.000000) translate(-7.631074, -35.492742) "></path>
                    <path d="M17.1620891,39.9565023 L33.4378084,39.9565023 C34.9127061,39.9565023 36.0969087,39.4074829 36.9904161,38.3094441 L46.1931563,25.6246892 C47.1036372,24.3697155 46.8401276,22.6165657 45.6009508,21.6846993 C45.6009508,21.6846993 45.6009508,21.6846993 45.6009508,21.6846993 C45.6009508,21.6846993 45.6009508,21.6846993 45.6009508,21.6846993 L45.6009508,21.6846993 C44.4882801,20.847966 42.9079759,21.0716574 42.0712426,22.1843281 C42.0688009,22.1875751 42.066367,22.1908279 42.0639411,22.1940866 C37.2839498,28.6148064 34.4085733,31.8251675 33.4378084,31.8251675 C32.4417025,31.8251675 29.9411283,31.8251675 25.9360858,31.8251675 C25.3100641,31.715435 24.9970533,31.3356519 24.9970533,30.6858184 C24.9970533,30.0359848 25.3100641,29.6105 25.9360858,29.409364 L31.7669507,29.409364 C33.2809055,29.409364 34.5082085,28.1820611 34.5082085,26.6681062 C34.5082085,26.6681062 34.5082085,26.6681062 34.5082085,26.6681062 C34.5082085,24.9005531 33.1097466,23.9268485 32.596021,23.9268485 L24.3905193,23.9268499 C24.1965659,23.9268499 24.0092642,23.8561456 23.8636923,23.7279787 C21.3484652,21.5134772 18.7854156,20.5601878 16.1745434,20.8681104 C13.6475706,21.166138 11.2888801,22.3721221 9.09847197,24.4860626 L9.098502,24.4860937 C8.84824399,24.7276151 8.78344532,25.1035012 8.93839015,25.4148752 L15.7345862,39.0723733 C16.004135,39.6140531 16.5570489,39.9565023 17.1620891,39.9565023 Z" id="Path-6"></path>
                    <ellipse id="Oval-4" cx="24.9128289" cy="5.43067227" rx="5.53618421" ry="5.43067227"></ellipse>
                    <path d="M18.8791068,10.9153574 C19.4961603,11.1354641 20.3913382,13.1973544 24.8392497,13.1973544 C29.2871611,13.1973544 29.2386403,11.6028419 31.1177722,10.9325443 C32.3705267,10.4856793 33.1068717,13.0389248 33.3268069,18.5922809 L16.9161184,18.5922809 C16.9161184,13.0075255 17.5704479,10.448551 18.8791068,10.9153574 Z" id="Rectangle-18"></path>
                </g>
            </g>
        </g>
    </g>
</svg>