<?xml version="1.0" encoding="UTF-8"?>
<svg width="44px" height="44px" viewBox="0 0 44 44" version="1.1" xmlns="http://www.w3.org/2000/svg" xmlns:xlink="http://www.w3.org/1999/xlink">
    <!-- Generator: Sketch 51.2 (57519) - http://www.bohemiancoding.com/sketch -->
    <title>open-wrench-tool-silhouette</title>
    <desc>Created with Sketch.</desc>
    <defs></defs>
    <g id="Desktop" stroke="none" stroke-width="1" fill="none" fill-rule="evenodd">
        <g id="Desktop-results-short-44" transform="translate(-248.000000, -729.000000)" fill="#231F20" fill-rule="nonzero">
            <g id="weight-balance" transform="translate(248.000000, 729.000000)">
                <g id="open-wrench-tool-silhouette" transform="translate(0.750000, 0.517857)">
                    <path d="M18.8142404,17 L0.994429546,34.5947949 C0.331598719,35.2491688 0,36.033042 0,36.945962 C0,37.8762571 0.331507066,38.6510808 0.994429546,39.2716998 L3.76801728,42.0621327 C4.44862869,42.6994935 5.24233928,43.0178571 6.14924069,43.0178571 C7.07392269,43.0178571 7.85892629,42.6994935 8.5044348,42.0621327 L26.35,24.4412751 C24.640956,23.7692545 23.127865,22.7832141 21.8102687,21.4828823 C20.4934057,20.182279 19.4948518,18.6880151 18.8142404,17 Z M9.00174122,36.4551137 C8.66986755,36.7821649 8.27741157,36.9460525 7.82400669,36.9460525 C7.37041851,36.9460525 6.97796253,36.7821649 6.64654712,36.4551137 C6.31504005,36.127791 6.14924069,35.7403791 6.14924069,35.2925162 C6.14924069,34.8451058 6.31504005,34.4570605 6.64654712,34.1292853 C6.97796253,33.8025961 7.37014355,33.6387085 7.82400669,33.6387085 C8.27768653,33.6387085 8.67023416,33.8025961 9.00174122,34.1292853 C9.33306498,34.45697 9.49886434,34.8450153 9.49886434,35.2925162 C9.49886434,35.7402886 9.33306498,36.127791 9.00174122,36.4551137 Z" id="Shape"></path>
                    <path d="M42.5740592,12.1699119 C42.4231861,11.9948185 42.2145001,11.9075473 41.9486539,11.9075473 C41.7891089,11.9075473 41.1636103,12.2181407 40.071692,12.838868 C38.9803332,13.4594116 37.7775446,14.1674101 36.4644453,14.9631389 C35.1506932,15.7589597 34.4496649,16.1829136 34.3611738,16.23546 L29.2227238,13.4290045 L29.2227238,7.55391264 L37.0228995,3.12109088 C37.3068355,2.92881882 37.4488502,2.68400036 37.4488502,2.38672736 C37.4488502,2.08963809 37.3068355,1.8449115 37.0228995,1.65254757 C36.241679,1.12781848 35.2875793,0.721226917 34.1611597,0.432772896 C33.0340874,0.144318875 31.9555966,0 30.9264333,0 C27.6431255,0 24.834443,1.14995778 22.5008523,3.44913843 C20.1664224,5.74813535 19,8.5153648 19,11.75 C19,14.9847271 20.1670751,17.7518647 22.5008523,20.0510453 C24.834443,22.3500422 27.6431255,23.5 30.9264333,23.5 C33.4291735,23.5 35.7232276,22.7694029 37.8085958,21.3097705 C39.8935909,19.8497705 41.3539267,17.9482706 42.1880181,15.6052707 C42.5958789,14.4339085 42.7999958,13.5069973 42.7999958,12.8252721 C42.8006486,12.5636424 42.7246525,12.3450053 42.5740592,12.1699119 Z" id="Shape"></path>
                </g>
            </g>
        </g>
    </g>
</svg>