<?xml version="1.0" encoding="UTF-8"?>
<svg width="25px" height="25px" viewBox="0 0 25 25" version="1.1" xmlns="http://www.w3.org/2000/svg" xmlns:xlink="http://www.w3.org/1999/xlink">
    <!-- Generator: Sketch 51.2 (57519) - http://www.bohemiancoding.com/sketch -->
    <title>Mask</title>
    <desc>Created with Sketch.</desc>
    <defs>
        <path d="M10.5254454,10.8638652 L0.59484557,10.8638652 C0.266342104,10.8638652 0,10.6036647 0,10.2827363 L0,0.581128866 C0,0.26020045 0.266342104,0 0.59484557,0 L2.97422785,0 C3.30273132,0 3.56907342,0.26020045 3.56907342,0.581128866 L3.56907342,4.36389036 C5.83806227,1.90218006 9.13385372,0.361752719 12.7978546,0.387758236 C19.5843485,0.435895077 25.0143963,5.79337052 24.9999713,12.4235182 C24.9855463,19.0444646 19.4871409,24.4074124 12.7065458,24.4074124 C9.52962431,24.4074124 6.63436221,23.2299969 4.4525678,21.2976465 C4.199808,21.0738151 4.18815895,20.6896889 4.42941839,20.4540411 L6.11317835,18.8091074 C6.33495661,18.5924432 6.6912691,18.5806754 6.92618353,18.783683 C8.46465246,20.1136449 10.4881188,20.9206392 12.7065458,20.9206392 C17.5281657,20.9206392 21.4309475,17.1086275 21.4309475,12.3974158 C21.4309475,7.68702736 17.5289588,3.87419244 12.7065458,3.87419244 C9.80687192,3.87419244 7.239915,5.25321124 5.65395757,7.37709196 L10.5254454,7.37709196 C10.8539488,7.37709196 11.1202909,7.63729241 11.1202909,7.95822083 L11.1202909,10.2827363 C11.1202909,10.6036647 10.8539488,10.8638652 10.5254454,10.8638652 Z" id="path-1"></path>
    </defs>
    <g id="Page-1" stroke="none" stroke-width="1" fill="none" fill-rule="evenodd">
        <g id="GDSplus/desktop/question-answered" transform="translate(-667.000000, -178.000000)">
            <g id="Group-3" transform="translate(458.000000, 85.000000)">
                <g id="Box" transform="translate(190.000000, 85.000000)">
                    <g id="Group-4" transform="translate(19.000000, 3.603175)">
                        <g id="Solid/undo" transform="translate(0.000000, 4.905186)">
                            <mask id="mask-2" fill="white">
                                <use xlink:href="#path-1"></use>
                            </mask>
                            <use id="Mask" fill="#000000" fill-rule="nonzero" xlink:href="#path-1"></use>
                        </g>
                    </g>
                </g>
            </g>
        </g>
    </g>
</svg>